<!-- Uploaded to: SVG Repo, www.svgrepo.com, Transformed by: SVG Repo Mixer Tools -->
<svg fill="#000000" width="800px" height="800px" viewBox="0 0 1024 1024" xmlns="http://www.w3.org/2000/svg"><path d="M469.065 346.376L660.87 154.571c55.91-55.91 146.552-55.91 202.472.001 55.909 55.909 55.909 146.55-.001 202.46L663.395 556.978c-55.909 55.9-146.552 55.9-202.462-.001-19.006-19.006-31.981-42.453-38.055-68.014-2.615-11.004-13.655-17.806-24.66-15.191s-17.806 13.655-15.191 24.66c7.815 32.89 24.532 63.099 48.943 87.51 71.907 71.895 188.48 71.895 260.386.001l199.947-199.947c71.906-71.906 71.906-188.481 0-260.387-71.917-71.906-188.492-71.906-260.397 0L440.101 317.414c-7.998 7.998-7.998 20.965 0 28.963s20.965 7.998 28.963 0z"/><path d="M548.841 673.748L357.036 865.553c-55.91 55.91-146.552 55.91-202.472-.001-55.899-55.908-55.899-146.551.002-202.461l199.945-199.945c55.909-55.9 146.552-55.9 202.462.001 19.006 19.006 31.981 42.453 38.055 68.014 2.615 11.004 13.655 17.806 24.66 15.191s17.806-13.655 15.191-24.66c-7.815-32.89-24.532-63.099-48.943-87.51-71.907-71.895-188.48-71.895-260.386-.001L125.603 634.128c-71.895 71.907-71.895 188.48-.001 260.386 71.918 71.907 188.493 71.907 260.398.001L577.805 702.71c7.998-7.998 7.998-20.965 0-28.963s-20.965-7.998-28.963 0z"/></svg>