<!-- Uploaded to: SVG Repo, www.svgrepo.com, Transformed by: SVG Repo Mixer Tools -->
<svg width="800px" height="800px" viewBox="0 0 24 24" xmlns="http://www.w3.org/2000/svg" fill="none" stroke="#000000" stroke-width="1" stroke-linecap="round" stroke-linejoin="miter"><path d="M3,19c0,1.66,4,3,9,3s9-1.34,9-3V5c0,1.66-4,3-9,3S3,6.66,3,5Z" fill="#059cf7" opacity="0.1" ></path><line x1="21" y1="5" x2="21" y2="19" stroke-linecap="round"></line><line x1="3" y1="19" x2="3" y2="5" stroke-linecap="round"></line><ellipse cx="12" cy="5" rx="9" ry="3"></ellipse><path d="M21,19c0,1.66-4,3-9,3s-9-1.34-9-3"></path><path d="M21,12c0,1.66-4,3-9,3s-9-1.34-9-3"></path></svg>