<!-- Uploaded to: SVG Repo, www.svgrepo.com, Transformed by: SVG Repo Mixer Tools -->
<svg fill="#000000" width="800px" height="800px" viewBox="0 0 1024 1024" xmlns="http://www.w3.org/2000/svg"><path d="M925.996 290.081c0-158.009-128.099-286.108-286.108-286.108-107.769 0-204.478 60.153-253.292 153.002-18.809-5.53-38.425-8.383-58.404-8.383-114.51 0-207.342 92.828-207.342 207.342 0 14.461 1.517 28.761 4.48 42.758C54.005 433.235 6.951 505.805 6.951 587.369c0 115.989 93.954 209.944 209.861 209.944h108.756c13.001 0 23.54-10.539 23.54-23.54s-10.539-23.54-23.54-23.54H216.812c-89.905 0-162.781-72.875-162.781-162.781 0-69.042 43.396-129.725 107.314-152.93 11.909-4.323 18.26-17.296 14.371-29.353-5.135-15.92-7.785-32.439-7.785-49.235 0-88.512 71.753-160.262 160.262-160.262 21.352 0 42.118 4.203 61.468 12.258 11.895 4.951 25.56-.58 30.662-12.41 37.502-86.957 123.242-144.467 219.566-144.467 132.007 0 239.027 107.021 239.027 239.027 0 39.501-9.605 77.572-27.731 111.759-6.666 12.572-.739 28.139 12.601 33.094 63.333 23.525 106.183 83.913 106.183 152.437 0 89.988-72.875 162.863-162.781 162.863h-99.093c-13.001 0-23.54 10.539-23.54 23.54s10.539 23.54 23.54 23.54h99.093c115.907 0 209.861-93.954 209.861-209.861 0-79.728-44.869-150.836-113.463-186.302 14.698-34.815 22.409-72.403 22.409-111.07z"/><path d="M496.7 647.833v296.218c0 13.001 10.539 23.54 23.54 23.54s23.54-10.539 23.54-23.54V647.833c0-13.001-10.539-23.54-23.54-23.54s-23.54 10.539-23.54 23.54z"/><path d="M404.321 910.558l97.88 97.88c9.193 9.193 24.098 9.193 33.291 0s9.193-24.098 0-33.291l-97.88-97.88c-9.193-9.193-24.098-9.193-33.291 0s-9.193 24.098 0 33.291z"/><path d="M602.869 879.663l-97.88 97.88c-9.193 9.193-9.193 24.098 0 33.291s24.098 9.193 33.291 0l97.88-97.88c9.193-9.193 9.193-24.098 0-33.291s-24.098-9.193-33.291 0z"/></svg>